<?xml version="1.0" encoding="UTF-8"?>
<svg id="a" data-name="Layer 1" xmlns="http://www.w3.org/2000/svg" width="320" height="320" viewBox="0 0 320 320">
  <rect width="320" height="320" fill="#4d4d4d"/>
  <path d="m70,100h-10v160h200V100H70Zm180,150H70v-120h180v120Z" fill="#ffb800"/>
  <path d="m270,60H40v220h240V60h-10Zm0,210H50V90h220v180Z" fill="#ac6aff"/>
  <path d="m20,20v280h280V20H20Zm270,270H30V50h260v240Z" fill="#00d6f5"/>
  <g>
    <rect x="280" y="30" width="10" height="10" fill="#4d4d4d"/>
    <rect x="260" y="30" width="10" height="10" fill="#4d4d4d"/>
    <rect x="240" y="30" width="10" height="10" fill="#4d4d4d"/>
  </g>
  <g>
    <rect x="260" y="70" width="10" height="10" fill="#4d4d4d"/>
    <rect x="240" y="70" width="10" height="10" fill="#4d4d4d"/>
    <rect x="220" y="70" width="10" height="10" fill="#4d4d4d"/>
  </g>
  <g>
    <rect x="240" y="110" width="10" height="10" fill="#4d4d4d"/>
    <rect x="220" y="110" width="10" height="10" fill="#4d4d4d"/>
    <rect x="200" y="110" width="10" height="10" fill="#4d4d4d"/>
  </g>
  <path d="m310,0H0v320h320V0h-10ZM11.162,310V10h297.677v300H11.162Z" fill="#f45c28"/>
  <path d="m80,140v100h160v-100H80Zm150,90H90v-60h140v60Z" fill="#fb8bd3"/>
  <g>
    <rect x="220" y="150" width="10" height="10" fill="#4d4d4d"/>
    <rect x="200" y="150" width="10" height="10" fill="#4d4d4d"/>
    <rect x="180" y="150" width="10" height="10" fill="#4d4d4d"/>
  </g>
  <rect x="100" y="180" width="120" height="40" fill="#98e079"/>
  <rect x="110" y="190" width="100" height="20" fill="#4d4d4d"/>
  <rect x="90" y="150" width="80" height="10" fill="#4d4d4d"/>
  <rect x="70" y="110" width="120" height="10" fill="#4d4d4d"/>
  <rect x="50" y="70" width="160" height="10" fill="#4d4d4d"/>
  <rect x="30" y="30" width="200" height="10" fill="#4d4d4d"/>
</svg>